<?xml version="1.0" encoding="utf-8"?>
<!-- Generator: Adobe Illustrator 25.4.1, SVG Export Plug-In . SVG Version: 6.00 Build 0)  -->
<svg version="1.1" id="Layer_1" xmlns="http://www.w3.org/2000/svg" xmlns:xlink="http://www.w3.org/1999/xlink" x="0px" y="0px"
	 viewBox="0 0 1536 512" style="enable-background:new 0 0 1536 512;" xml:space="preserve">
<style type="text/css">
	.st0{fill:#181C31;}
	.st1{fill:#57EBB9;}
	.st2{fill:url(#SVGID_1_);}
</style>
<g>
	<g id="Logo_Latter">
		<g>
			<path class="st0" d="M472.2,209.8h-52.4v28.3H468c3.6,0,6.2,0.8,8,2.4c1.7,1.6,2.6,3.7,2.6,6.3c0,2.6-0.9,4.8-2.6,6.4
				c-1.7,1.7-4.4,2.5-8,2.5h-48.3v32.8H474c3.7,0,6.4,0.9,8.3,2.6c1.9,1.7,2.8,4,2.8,6.8c0,2.7-0.9,4.9-2.8,6.7
				c-1.9,1.7-4.6,2.6-8.3,2.6h-63.2c-5.1,0-8.7-1.1-10.9-3.4c-2.2-2.3-3.3-5.9-3.3-10.9v-86.7c0-3.4,0.5-6.1,1.5-8.2
				c1-2.1,2.5-3.7,4.7-4.6c2.1-1,4.8-1.5,8.1-1.5h61.4c3.7,0,6.5,0.8,8.3,2.5c1.8,1.7,2.7,3.8,2.7,6.5c0,2.7-0.9,4.9-2.7,6.6
				C478.7,209,475.9,209.8,472.2,209.8z"/>
			<path class="st0" d="M583.6,294.1l-5.5-14.5h-46.7l-5.5,14.8c-2.1,5.8-4,9.7-5.5,11.7c-1.5,2-4,3-7.4,3c-2.9,0-5.5-1.1-7.8-3.2
				c-2.2-2.2-3.4-4.6-3.4-7.3c0-1.6,0.3-3.2,0.8-4.9c0.5-1.7,1.4-4,2.6-7l29.4-74.9c0.8-2.2,1.8-4.7,3-7.8c1.2-3,2.4-5.5,3.8-7.5
				c1.3-2,3.1-3.6,5.2-4.8c2.2-1.2,4.8-1.9,8-1.9c3.2,0,5.9,0.6,8.1,1.9c2.2,1.2,3.9,2.8,5.2,4.8s2.5,4,3.4,6.3s2.1,5.2,3.5,8.9
				l30,74.5c2.3,5.7,3.5,9.8,3.5,12.4c0,2.7-1.1,5.1-3.3,7.4c-2.2,2.2-4.9,3.3-8,3.3c-1.8,0-3.4-0.3-4.7-1c-1.3-0.7-2.4-1.5-3.3-2.7
				c-0.9-1.1-1.8-2.9-2.9-5.2C585.2,298,584.3,295.9,583.6,294.1z M537.5,262.1h34.3l-17.3-47.6L537.5,262.1z"/>
			<path class="st0" d="M719.3,272.6c0,7-1.8,13.3-5.4,18.8c-3.6,5.6-8.8,9.9-15.7,13.1c-6.9,3.1-15.1,4.7-24.5,4.7
				c-11.3,0-20.7-2.2-28-6.5c-5.2-3.1-9.5-7.2-12.7-12.4c-3.3-5.2-4.9-10.2-4.9-15.1c0-2.8,1-5.3,2.9-7.3c2-2,4.5-3,7.5-3
				c2.5,0,4.5,0.8,6.2,2.4c1.7,1.6,3.1,3.9,4.3,7c1.5,3.7,3,6.7,4.7,9.2c1.7,2.5,4.1,4.5,7.2,6.1c3.1,1.6,7.1,2.4,12.1,2.4
				c6.9,0,12.5-1.6,16.8-4.8s6.5-7.3,6.5-12.1c0-3.8-1.2-6.9-3.5-9.3c-2.3-2.4-5.3-4.2-9-5.5c-3.7-1.3-8.6-2.6-14.8-4
				c-8.3-1.9-15.2-4.2-20.7-6.8c-5.6-2.6-10-6.1-13.2-10.6c-3.3-4.5-4.9-10.1-4.9-16.7c0-6.3,1.7-12,5.2-16.9
				c3.4-4.9,8.4-8.7,15-11.4c6.5-2.7,14.2-4,23-4c7,0,13.1,0.9,18.3,2.6c5.1,1.8,9.4,4.1,12.8,7c3.4,2.9,5.9,6,7.4,9.2
				c1.6,3.2,2.3,6.3,2.3,9.4c0,2.8-1,5.3-2.9,7.5s-4.4,3.3-7.3,3.3c-2.7,0-4.7-0.7-6.1-2c-1.4-1.3-2.9-3.5-4.5-6.6
				c-2.1-4.4-4.6-7.8-7.5-10.2c-2.9-2.4-7.6-3.7-14.1-3.7c-6,0-10.8,1.3-14.5,4c-3.7,2.7-5.5,5.8-5.5,9.6c0,2.3,0.6,4.3,1.9,6
				c1.3,1.7,3,3.1,5.2,4.3c2.2,1.2,4.4,2.2,6.7,2.8c2.2,0.7,6,1.7,11.1,3c6.5,1.5,12.3,3.2,17.6,5c5.2,1.8,9.7,4.1,13.4,6.7
				c3.7,2.6,6.6,5.9,8.6,10C718.3,261.8,719.3,266.8,719.3,272.6z"/>
			<path class="st0" d="M771.2,294.9v-36.6l-28-43.7c-2.5-3.9-4.2-7-5.2-9.2c-1-2.2-1.5-4.1-1.5-5.7c0-2.7,1-5,3.1-6.9
				c2.1-1.9,4.6-2.9,7.6-2.9c3.2,0,5.6,0.9,7.2,2.7c1.6,1.8,4.1,5.4,7.4,10.8l21.5,35l21.7-35c1.3-2.2,2.4-4,3.3-5.4
				c0.9-1.5,1.9-2.8,2.9-4.1c1.1-1.3,2.3-2.3,3.6-3c1.3-0.7,2.9-1,4.8-1c2.9,0,5.4,1,7.3,2.9c2,1.9,2.9,4.1,2.9,6.7
				c0,2-0.5,4.1-1.5,6.1c-1,2-2.7,4.9-5.1,8.5l-28.7,44.3v36.6c0,4.8-1.1,8.3-3.3,10.7c-2.2,2.4-5,3.5-8.4,3.5
				c-3.4,0-6.2-1.2-8.4-3.5S771.2,299.8,771.2,294.9z"/>
			<path class="st0" d="M901.5,307.2h-35.1c-5.1,0-8.7-1.1-10.8-3.4c-2.2-2.3-3.3-5.9-3.3-10.9v-86.7c0-5.1,1.1-8.8,3.3-11
				c2.2-2.2,5.8-3.3,10.8-3.3h37.2c5.5,0,10.2,0.3,14.3,1c4,0.7,7.6,2,10.8,3.9c2.7,1.6,5.1,3.7,7.2,6.2c2.1,2.5,3.7,5.2,4.8,8.3
				c1.1,3,1.6,6.2,1.6,9.6c0,11.5-5.7,20-17.2,25.3c15.1,4.8,22.6,14.2,22.6,28.2c0,6.5-1.6,12.3-4.9,17.4c-3.3,5.2-7.7,9-13.3,11.5
				c-3.5,1.5-7.5,2.5-12.1,3.1C912.9,306.9,907.6,307.2,901.5,307.2z M875.6,209.4v29.8h21.3c5.8,0,10.3-0.6,13.4-1.7
				s5.6-3.2,7.2-6.3c1.3-2.2,2-4.7,2-7.4c0-5.8-2.1-9.7-6.2-11.6c-4.1-1.9-10.4-2.9-18.9-2.9H875.6z M899.8,256h-24.2v33.7h25
				c15.7,0,23.6-5.7,23.6-17.1c0-5.8-2-10.1-6.1-12.7C914,257.3,907.9,256,899.8,256z"/>
			<path class="st0" d="M975.4,294.9V204c0-4.7,1.1-8.3,3.2-10.6c2.1-2.4,4.9-3.5,8.3-3.5c3.5,0,6.3,1.2,8.5,3.5
				c2.2,2.3,3.3,5.9,3.3,10.7v90.9c0,4.8-1.1,8.3-3.3,10.7c-2.2,2.4-5,3.5-8.5,3.5c-3.3,0-6.1-1.2-8.3-3.6
				C976.4,303.2,975.4,299.7,975.4,294.9z"/>
			<path class="st0" d="M1054,204v84h47.2c3.8,0,6.6,0.9,8.7,2.8c2,1.8,3,4.1,3,6.9c0,2.8-1,5.1-3,6.9c-2,1.8-4.9,2.6-8.7,2.6H1045
				c-5.1,0-8.7-1.1-10.9-3.4c-2.2-2.3-3.3-5.9-3.3-10.9V204c0-4.7,1.1-8.3,3.2-10.6c2.1-2.4,4.9-3.5,8.3-3.5c3.5,0,6.3,1.2,8.5,3.5
				C1052.9,195.7,1054,199.2,1054,204z"/>
			<path class="st0" d="M1157.5,204v84h47.2c3.8,0,6.6,0.9,8.7,2.8c2,1.8,3,4.1,3,6.9c0,2.8-1,5.1-3,6.9c-2,1.8-4.9,2.6-8.7,2.6
				h-56.2c-5.1,0-8.7-1.1-10.9-3.4c-2.2-2.3-3.3-5.9-3.3-10.9V204c0-4.7,1.1-8.3,3.2-10.6c2.1-2.4,4.9-3.5,8.3-3.5
				c3.5,0,6.3,1.2,8.5,3.5C1156.4,195.7,1157.5,199.2,1157.5,204z"/>
			<path class="st0" d="M1268.5,203.9l44.7,68v-68.6c0-4.5,1-7.8,2.9-10c1.9-2.2,4.5-3.3,7.7-3.3c3.3,0,6,1.1,7.9,3.3
				s2.9,5.6,2.9,10V294c0,10.1-4.2,15.2-12.5,15.2c-2.1,0-4-0.3-5.6-0.9c-1.7-0.6-3.2-1.6-4.7-2.9c-1.5-1.3-2.8-2.8-4.1-4.6
				c-1.3-1.8-2.5-3.6-3.8-5.4l-43.6-67.2v67.6c0,4.4-1,7.7-3.1,10c-2,2.3-4.6,3.4-7.8,3.4c-3.3,0-5.9-1.1-7.9-3.4s-3-5.6-3-10v-89
				c0-3.8,0.4-6.7,1.3-8.9c1-2.4,2.6-4.3,4.9-5.8c2.3-1.5,4.8-2.2,7.4-2.2c2.1,0,3.9,0.3,5.4,1c1.5,0.7,2.8,1.6,3.9,2.8
				c1.1,1.2,2.3,2.7,3.4,4.5S1267.2,201.9,1268.5,203.9z"/>
			<path class="st0" d="M1471.5,260.3v22.1c0,2.9-0.3,5.3-0.9,7c-0.6,1.8-1.6,3.3-3.2,4.8c-1.5,1.4-3.5,2.8-5.9,4.1
				c-6.9,3.8-13.6,6.5-20.1,8.3c-6.4,1.7-13.4,2.6-21,2.6c-8.8,0-16.9-1.4-24.1-4.1c-7.3-2.7-13.4-6.7-18.6-11.9
				c-5.1-5.2-9-11.5-11.8-18.9c-2.7-7.4-4.1-15.7-4.1-24.8c0-9,1.3-17.2,4-24.6c2.7-7.5,6.6-13.8,11.8-19
				c5.2-5.2,11.5-9.2,18.9-11.9c7.4-2.8,15.8-4.1,25.2-4.1c7.7,0,14.6,1,20.5,3.1c6,2.1,10.8,4.7,14.5,7.8c3.7,3.2,6.5,6.5,8.4,10
				c1.9,3.5,2.8,6.6,2.8,9.4c0,2.9-1.1,5.4-3.3,7.5c-2.2,2.1-4.8,3.1-7.8,3.1c-1.7,0-3.3-0.4-4.8-1.2c-1.5-0.8-2.8-1.9-3.9-3.3
				c-2.9-4.5-5.3-7.9-7.3-10.2c-2-2.3-4.7-4.2-8-5.8c-3.4-1.6-7.7-2.4-12.9-2.4c-5.4,0-10.2,0.9-14.4,2.8c-4.2,1.9-7.8,4.6-10.8,8.1
				c-3,3.5-5.3,7.9-6.9,13c-1.6,5.1-2.4,10.8-2.4,17.1c0,13.5,3.1,24,9.3,31.3c6.2,7.3,14.8,10.9,25.9,10.9c5.4,0,10.4-0.7,15.2-2.1
				c4.7-1.4,9.5-3.4,14.4-6.1v-18.7h-18c-4.3,0-7.6-0.7-9.8-2c-2.2-1.3-3.3-3.5-3.3-6.7c0-2.6,0.9-4.7,2.8-6.4
				c1.9-1.7,4.4-2.5,7.6-2.5h26.4c3.2,0,6,0.3,8.2,0.9c2.2,0.6,4.1,1.9,5.4,3.9C1470.8,253.3,1471.5,256.3,1471.5,260.3z"/>
		</g>
	</g>
	<g id="Logo_Icon">
		<polygon class="st1" points="181.1,179.4 64.5,226 64.7,248.3 181.3,201.6 		"/>
		<linearGradient id="SVGID_1_" gradientUnits="userSpaceOnUse" x1="64.8851" y1="256" x2="324.9061" y2="256">
			<stop  offset="0" style="stop-color:#57EBB9"/>
			<stop  offset="0.149" style="stop-color:#53E6BC"/>
			<stop  offset="0.3365" style="stop-color:#49D6C4"/>
			<stop  offset="0.5446" style="stop-color:#37BCD3"/>
			<stop  offset="0.7676" style="stop-color:#1F98E6"/>
			<stop  offset="1" style="stop-color:#006BFF"/>
		</linearGradient>
		<path class="st2" d="M317.9,224.5c4.3,4.1,6.9,10.9,7,19.4c0.1,18.1-11.1,37.3-25.4,43.5l0,0.1L183,334.1l-0.2-22.3l115.9-46.4
			c4.8-1.9,8.7-8.4,8.6-14.5c0-6-4-9.4-8.8-7.5L65.4,336.7l-0.2-22.2l233.1-93.2c4.8-1.9,8.7-8.4,8.6-14.5s-4-9.4-8.8-7.5
			L65.1,292.5l-0.2-22.2L298,177c14.5-5.8,26.4,4.3,26.6,22.7C324.6,208.1,322.1,217,317.9,224.5z"/>
	</g>
</g>
</svg>
